<svg xmlns="http://www.w3.org/2000/svg" width="640" height="360" viewBox="0 0 640 360"><rect width="100%" height="100%" fill="white"/><text x="320" y="26" text-anchor="middle" font-size="16" font-family="sans-serif" fill="#333">Vitesse sur une ligne droite</text><line x1="62.0" y1="44" x2="62.0" y2="308" stroke="#e5e5e5"/><text x="62.0" y="324" text-anchor="middle" font-size="11" font-family="sans-serif" fill="#333">0</text><line x1="173.6" y1="44" x2="173.6" y2="308" stroke="#e5e5e5"/><text x="173.6" y="324" text-anchor="middle" font-size="11" font-family="sans-serif" fill="#333">200</text><line x1="285.2" y1="44" x2="285.2" y2="308" stroke="#e5e5e5"/><text x="285.2" y="324" text-anchor="middle" font-size="11" font-family="sans-serif" fill="#333">400</text><line x1="396.8" y1="44" x2="396.8" y2="308" stroke="#e5e5e5"/><text x="396.8" y="324" text-anchor="middle" font-size="11" font-family="sans-serif" fill="#333">600</text><line x1="508.4" y1="44" x2="508.4" y2="308" stroke="#e5e5e5"/><text x="508.4" y="324" text-anchor="middle" font-size="11" font-family="sans-serif" fill="#333">800</text><line x1="620.0" y1="44" x2="620.0" y2="308" stroke="#e5e5e5"/><text x="620.0" y="324" text-anchor="middle" font-size="11" font-family="sans-serif" fill="#333">1000</text><line x1="62" y1="308.0" x2="620" y2="308.0" stroke="#e5e5e5"/><text x="56" y="312.0" text-anchor="end" font-size="11" font-family="sans-serif" fill="#333">0</text><line x1="62" y1="255.2" x2="620" y2="255.2" stroke="#e5e5e5"/><text x="56" y="259.2" text-anchor="end" font-size="11" font-family="sans-serif" fill="#333">20</text><line x1="62" y1="202.4" x2="620" y2="202.4" stroke="#e5e5e5"/><text x="56" y="206.4" text-anchor="end" font-size="11" font-family="sans-serif" fill="#333">40</text><line x1="62" y1="149.6" x2="620" y2="149.6" stroke="#e5e5e5"/><text x="56" y="153.6" text-anchor="end" font-size="11" font-family="sans-serif" fill="#333">60</text><line x1="62" y1="96.8" x2="620" y2="96.8" stroke="#e5e5e5"/><text x="56" y="100.8" text-anchor="end" font-size="11" font-family="sans-serif" fill="#333">80</text><line x1="62" y1="44.0" x2="620" y2="44.0" stroke="#e5e5e5"/><text x="56" y="48.0" text-anchor="end" font-size="11" font-family="sans-serif" fill="#333">100</text><rect x="62" y="44" width="558" height="264" fill="none" stroke="#888"/><text x="341" y="350" text-anchor="middle" font-size="12" font-family="sans-serif" fill="#333">distance (m)</text><text transform="translate(16,176) rotate(-90)" text-anchor="middle" font-size="12" font-family="sans-serif" fill="#333">vitesse (m/s)</text><polyline points="62.0,308.0 63.1,291.5 66.4,275.0 71.8,258.5 79.4,242.0 89.2,225.5 101.2,209.0 115.4,192.5 131.8,176.0 150.3,159.5 171.0,143.0 193.9,126.5 218.9,110.0 246.2,93.5 275.6,77.0 307.2,60.5 341.0,44.0 480.5,44.0 497.4,60.5 513.2,77.0 527.9,93.5 541.5,110.0 554.1,126.5 565.5,143.0 575.9,159.5 585.1,176.0 593.3,192.5 600.4,209.0 606.4,225.5 611.3,242.0 615.1,258.5 617.8,275.0 619.5,291.5 620.0,308.0" fill="none" stroke="#1f77b4" stroke-width="2.2" stroke-linejoin="round"/><rect x="72" y="49" width="14" height="4" fill="#1f77b4"/><text x="92" y="55" font-size="11" font-family="sans-serif" fill="#333">d=1000 m (0→0)</text><polyline points="62.0,308.0 62.7,294.5 64.9,281.1 68.5,267.6 73.6,254.1 80.2,240.6 88.2,227.2 97.6,213.7 108.5,200.2 120.9,186.8 134.7,173.3 149.9,159.8 166.6,146.3 184.8,132.9 204.4,119.4 225.5,105.9 248.0,92.4 259.3,105.9 269.8,119.4 279.6,132.9 288.7,146.3 297.0,159.8 304.7,173.3 311.6,186.8 317.8,200.2 323.2,213.7 327.9,227.2 331.9,240.6 335.2,254.1 337.7,267.6 339.5,281.1 340.6,294.5 341.0,308.0" fill="none" stroke="#d62728" stroke-width="2.2" stroke-linejoin="round"/><rect x="72" y="65" width="14" height="4" fill="#d62728"/><text x="92" y="71" font-size="11" font-family="sans-serif" fill="#333">d=500 m (0→0)</text><polyline points="62.0,308.0 62.4,297.6 63.7,287.1 65.9,276.7 69.0,266.3 72.9,255.8 77.7,245.4 83.4,235.0 89.9,224.5 97.3,214.1 105.6,203.6 114.7,193.2 124.8,182.8 135.7,172.3 147.4,161.9 160.1,151.5 173.6,141.0 180.4,151.5 186.7,161.9 192.6,172.3 198.0,182.8 203.0,193.2 207.6,203.6 211.7,214.1 215.5,224.5 218.7,235.0 221.6,245.4 224.0,255.8 225.9,266.3 227.4,276.7 228.5,287.1 229.2,297.6 229.4,308.0" fill="none" stroke="#2ca02c" stroke-width="2.2" stroke-linejoin="round"/><rect x="72" y="81" width="14" height="4" fill="#2ca02c"/><text x="92" y="87" font-size="11" font-family="sans-serif" fill="#333">d=300 m (0→0)</text><polyline points="62.0,228.8 65.7,223.2 69.6,217.6 73.8,212.0 78.3,206.3 83.0,200.7 87.9,195.1 93.1,189.5 98.6,183.9 104.3,178.3 110.2,172.6 116.4,167.0 122.9,161.4 129.6,155.8 136.6,150.2 143.8,144.6 151.3,139.0 152.8,141.3 154.4,143.6 155.9,145.9 157.4,148.2 158.8,150.5 160.3,152.8 161.7,155.2 163.1,157.5 164.5,159.8 165.9,162.1 167.2,164.4 168.5,166.7 169.8,169.1 171.1,171.4 172.4,173.7 173.6,176.0" fill="none" stroke="#ff7f0e" stroke-width="2.2" stroke-linejoin="round"/><rect x="72" y="97" width="14" height="4" fill="#ff7f0e"/><text x="92" y="103" font-size="11" font-family="sans-serif" fill="#333">d=200 m (30→50)</text></svg>