<svg xmlns="http://www.w3.org/2000/svg" width="640" height="360" viewBox="0 0 640 360"><rect width="100%" height="100%" fill="white"/><text x="320" y="26" text-anchor="middle" font-size="16" font-family="sans-serif" fill="#333">Temps de course selon chaque réglage (facteur ×)</text><line x1="62.0" y1="44" x2="62.0" y2="308" stroke="#e5e5e5"/><text x="62.0" y="324" text-anchor="middle" font-size="11" font-family="sans-serif" fill="#333">0.6</text><line x1="173.6" y1="44" x2="173.6" y2="308" stroke="#e5e5e5"/><text x="173.6" y="324" text-anchor="middle" font-size="11" font-family="sans-serif" fill="#333">0.8</text><line x1="285.2" y1="44" x2="285.2" y2="308" stroke="#e5e5e5"/><text x="285.2" y="324" text-anchor="middle" font-size="11" font-family="sans-serif" fill="#333">1</text><line x1="396.8" y1="44" x2="396.8" y2="308" stroke="#e5e5e5"/><text x="396.8" y="324" text-anchor="middle" font-size="11" font-family="sans-serif" fill="#333">1.2</text><line x1="508.4" y1="44" x2="508.4" y2="308" stroke="#e5e5e5"/><text x="508.4" y="324" text-anchor="middle" font-size="11" font-family="sans-serif" fill="#333">1.4</text><line x1="620.0" y1="44" x2="620.0" y2="308" stroke="#e5e5e5"/><text x="620.0" y="324" text-anchor="middle" font-size="11" font-family="sans-serif" fill="#333">1.6</text><line x1="62" y1="300.5" x2="620" y2="300.5" stroke="#e5e5e5"/><text x="56" y="304.5" text-anchor="end" font-size="11" font-family="sans-serif" fill="#333">100</text><line x1="62" y1="230.2" x2="620" y2="230.2" stroke="#e5e5e5"/><text x="56" y="234.2" text-anchor="end" font-size="11" font-family="sans-serif" fill="#333">120</text><line x1="62" y1="159.8" x2="620" y2="159.8" stroke="#e5e5e5"/><text x="56" y="163.8" text-anchor="end" font-size="11" font-family="sans-serif" fill="#333">140</text><line x1="62" y1="89.5" x2="620" y2="89.5" stroke="#e5e5e5"/><text x="56" y="93.5" text-anchor="end" font-size="11" font-family="sans-serif" fill="#333">160</text><rect x="62" y="44" width="558" height="264" fill="none" stroke="#888"/><text x="341" y="350" text-anchor="middle" font-size="12" font-family="sans-serif" fill="#333">facteur appliqué au paramètre</text><text transform="translate(16,176) rotate(-90)" text-anchor="middle" font-size="12" font-family="sans-serif" fill="#333">temps (s)</text><polyline points="62.0,159.5 117.8,170.0 173.6,178.9 229.4,186.6 285.2,193.3 341.0,199.3 396.8,204.5 452.6,209.2 508.4,213.5 564.2,217.3 620.0,220.8" fill="none" stroke="#1f77b4" stroke-width="2.2" stroke-linejoin="round"/><rect x="72" y="49" width="14" height="4" fill="#1f77b4"/><text x="92" y="55" font-size="11" font-family="sans-serif" fill="#333">amax</text><polyline points="62.0,178.7 117.8,183.5 173.6,187.4 229.4,190.6 285.2,193.3 341.0,195.7 396.8,197.7 452.6,199.4 508.4,201.0 564.2,202.4 620.0,203.6" fill="none" stroke="#d62728" stroke-width="2.2" stroke-linejoin="round"/><rect x="72" y="65" width="14" height="4" fill="#d62728"/><text x="92" y="71" font-size="11" font-family="sans-serif" fill="#333">fmax</text><polyline points="62.0,109.9 117.8,160.6 173.6,185.4 229.4,193.3 285.2,193.3 341.0,193.3 396.8,193.3 452.6,193.3 508.4,193.3 564.2,193.3 620.0,193.3" fill="none" stroke="#2ca02c" stroke-width="2.2" stroke-linejoin="round"/><rect x="72" y="81" width="14" height="4" fill="#2ca02c"/><text x="92" y="87" font-size="11" font-family="sans-serif" fill="#333">vmax</text><polyline points="62.0,44.0 117.8,89.8 173.6,129.0 229.4,163.2 285.2,193.3 341.0,220.1 396.8,243.9 452.6,265.1 508.4,282.9 564.2,297.2 620.0,308.0" fill="none" stroke="#ff7f0e" stroke-width="2.2" stroke-linejoin="round"/><rect x="72" y="97" width="14" height="4" fill="#ff7f0e"/><text x="92" y="103" font-size="11" font-family="sans-serif" fill="#333">coeff_virage</text></svg>